<svg version="1.1" id="Layer_1" xmlns="http://www.w3.org/2000/svg" xmlns:xlink="http://www.w3.org/1999/xlink" x="0px" y="0px"
	 width="100%" viewBox="0 0 500 500" enable-background="new 0 0 500 500" xml:space="preserve">
<path fill="#0B131E" opacity="1.000000" stroke="none" 
	d="
M244.000000,501.000000 
	C162.666687,501.000000 81.833374,501.000000 1.000043,501.000000 
	C1.000029,334.333405 1.000029,167.666779 1.000014,1.000133 
	C167.666565,1.000089 334.333130,1.000089 500.999756,1.000044 
	C500.999847,167.666519 500.999847,334.333038 500.999939,500.999786 
	C415.500000,501.000000 330.000000,501.000000 244.000000,501.000000 
M319.745026,358.116089 
	C319.385803,359.120361 319.026581,360.124634 318.667358,361.128876 
	C320.525909,361.380798 322.456757,362.043152 324.216309,361.733124 
	C325.299042,361.542389 327.044586,359.630463 326.860229,358.907562 
	C326.509705,357.532959 324.988373,356.456909 323.236145,354.971375 
	C323.402344,354.227875 323.568573,353.484406 323.734772,352.740906 
	C324.972961,353.182678 326.211151,353.624451 328.224396,354.342773 
	C326.640625,349.785583 324.200104,349.606903 321.277649,350.932281 
	C317.048920,352.850067 320.061951,355.561493 319.745026,358.116089 
M184.293060,172.210022 
	C183.861923,172.706360 183.492477,173.278778 182.989578,173.686646 
	C179.786774,176.284348 179.794525,182.382614 173.793015,181.312866 
	C172.719101,176.710358 169.567047,175.563110 165.236618,175.793930 
	C159.631409,176.092697 156.542343,178.225433 154.279510,184.113953 
	C157.145142,185.724121 160.037460,187.349289 162.217850,189.035660 
	C158.067551,191.658310 153.832870,194.158325 149.791580,196.939377 
	C146.020233,199.534653 144.569717,203.124969 145.939758,208.163010 
	C145.653854,208.432877 145.367950,208.702744 144.735626,208.383606 
	C143.821609,211.296844 142.005493,214.254929 142.147705,217.115646 
	C142.809082,230.420486 144.012527,243.698395 144.788910,257.575073 
	C144.365967,257.875061 143.571671,258.178741 143.574615,258.474487 
	C143.640823,265.131683 143.683990,271.792816 143.973785,278.442657 
	C144.144424,282.358429 146.473709,284.538513 150.414627,284.572693 
	C159.402786,284.650696 168.392380,284.647705 177.380707,284.582184 
	C181.420639,284.552734 183.823807,282.525818 184.357162,278.025940 
	C182.807022,277.692719 181.383469,277.409546 179.970947,277.079102 
	C173.356659,275.531952 166.724686,274.051575 160.152100,272.343170 
	C158.962906,272.034058 158.021851,270.770233 157.708740,269.605591 
	C160.248520,270.381256 162.758896,271.275360 165.332642,271.914154 
	C189.670975,277.954559 214.607666,278.855499 239.456619,279.931000 
	C267.079437,281.126465 294.559387,278.316223 321.977356,276.011902 
	C321.974854,276.294769 321.972351,276.577606 321.264252,277.050903 
	C319.924957,277.468384 318.585663,277.885834 317.320038,278.280365 
	C318.225281,282.494324 320.437866,284.594879 324.360596,284.600830 
	C333.352600,284.614380 342.361603,284.897644 351.324524,284.385681 
	C353.516541,284.260468 357.211487,281.653442 357.378296,279.915222 
	C358.053314,272.881287 357.620972,265.741089 357.597290,258.640106 
	C357.360565,258.748322 357.123871,258.856537 356.478180,258.686584 
	C356.284973,258.418701 356.098572,258.146179 355.939453,257.425018 
	C355.939453,257.425018 356.151886,257.034637 356.701599,257.010590 
	C357.101379,256.874786 357.501129,256.739014 357.900909,256.603210 
	C357.479126,256.375885 357.057312,256.148529 356.789612,255.120117 
	C357.849854,242.334961 359.491730,229.558777 359.688721,216.760330 
	C359.769379,211.521286 356.726654,206.234177 354.973022,200.290878 
	C349.368286,196.506638 343.763519,192.722397 338.287872,188.219940 
	C341.970306,186.318695 348.942047,186.842087 347.609283,180.852524 
	C346.528534,175.995407 340.359985,176.150101 335.725800,175.834427 
	C332.212067,175.595108 329.681976,176.652786 328.351257,180.258835 
	C327.250977,183.240387 325.397858,182.908188 323.702698,180.614731 
	C321.104309,177.099380 318.565765,173.539810 316.101135,169.292831 
	C313.371857,166.270447 310.642609,163.248062 307.453522,159.706238 
	C303.551300,157.161713 299.934814,153.266388 295.684540,152.367416 
	C287.978790,150.737549 279.895508,150.892578 271.067627,150.045929 
	C254.908585,150.060150 238.724548,149.546722 222.600983,150.310181 
	C214.481232,150.694656 205.195404,149.024155 198.337128,156.863800 
	C196.749878,157.609528 194.830856,158.012329 193.638321,159.166046 
	C190.226486,162.466843 187.109497,166.072433 183.680130,169.769943 
	C183.907196,170.158005 184.399902,171.000015 184.293060,172.210022 
M137.161423,334.335693 
	C137.161423,321.900452 137.161423,309.465179 137.161423,297.419891 
	C130.243774,295.094543 126.336075,297.890411 123.231705,303.264923 
	C120.847260,307.393066 117.741310,311.104431 114.777748,315.250854 
	C110.825111,309.698700 107.527817,304.244659 103.332535,299.602142 
	C101.779350,297.883392 98.087776,297.436859 95.422424,297.555511 
	C92.309097,297.694122 92.206955,300.578522 92.228813,303.224854 
	C92.311882,313.282043 92.262291,323.340271 92.262291,333.650848 
	C95.118088,333.832886 96.571449,333.866852 98.010460,334.028534 
	C101.973854,334.473816 103.825340,333.554657 103.103745,328.812500 
	C102.572113,325.318695 103.648819,321.580170 104.025558,317.782440 
	C108.450989,320.817657 108.587082,327.446960 115.452766,326.975006 
	C121.641068,326.549652 121.410583,319.723053 126.147614,317.422729 
	C126.147614,323.782959 126.147614,329.726440 126.147614,336.302826 
	C130.013733,335.948853 133.544922,335.625519 137.161423,334.335693 
M270.674377,336.017273 
	C272.958801,336.017273 275.243225,336.017273 277.643005,336.017273 
	C277.643005,322.747742 277.643005,309.910370 277.643005,297.156860 
	C273.759857,297.156860 270.193756,297.156860 266.324158,297.156860 
	C266.324158,301.796997 266.324158,306.084473 266.324158,310.544739 
	C262.290710,310.544739 258.573090,310.544739 254.350433,310.544739 
	C254.350433,305.833618 254.350433,301.437592 254.350433,297.165833 
	C250.288300,297.165833 246.746628,297.165833 243.331940,297.165833 
	C243.331940,310.269287 243.331940,323.007324 243.331940,335.677368 
	C247.175552,335.677368 250.723358,335.677368 254.741989,335.677368 
	C254.741989,330.759094 254.741989,326.170380 254.741989,321.546722 
	C258.804260,321.546722 262.372406,321.546722 266.449524,321.546722 
	C266.449524,325.605133 266.590302,329.403076 266.401825,333.184601 
	C266.268036,335.869293 267.652679,336.240662 270.674377,336.017273 
M341.870667,297.098877 
	C341.870667,309.953949 341.870667,322.809021 341.870667,335.734375 
	C345.357513,335.734375 348.926361,335.734375 352.988373,335.734375 
	C352.988373,330.733795 352.988373,326.003510 352.988373,321.565155 
	C357.614899,319.870178 359.047882,322.925232 359.803894,325.724152 
	C362.303619,334.978668 368.330078,337.727661 377.173615,335.909729 
	C377.313873,335.880890 377.441711,335.791656 378.008942,335.532501 
	C375.195496,330.305176 372.234680,325.169983 369.692047,319.835449 
	C369.013885,318.412598 369.139496,316.202515 369.714294,314.658417 
	C371.887054,308.821655 374.396393,303.110199 376.840637,297.204773 
	C365.172119,295.995789 365.014679,295.937317 361.371765,305.749298 
	C359.812317,309.949585 357.260864,311.257355 352.684937,310.563385 
	C352.684937,305.906921 352.684937,301.489960 352.684937,296.840820 
	C349.073975,296.840820 345.927124,296.840820 341.870667,297.098877 
M145.639023,326.018982 
	C144.387512,329.213867 143.136002,332.408783 141.784393,335.859192 
	C146.147827,335.859192 149.955429,335.859192 153.763031,335.859192 
	C153.540543,335.521027 153.318054,335.182831 153.095566,334.844666 
	C154.964767,333.410309 156.966019,330.638184 158.676987,330.807098 
	C162.838516,331.217865 168.705948,327.334503 170.903763,334.545898 
	C171.100906,335.192780 172.304703,335.905304 173.071503,335.941498 
	C176.336990,336.095856 179.613968,336.007111 183.486191,336.007111 
	C178.516663,323.204437 173.928848,310.939026 168.960709,298.829620 
	C167.236893,294.627991 163.076904,297.312714 160.092529,296.997192 
	C158.786163,296.859070 156.524673,298.454895 155.959518,299.795593 
	C152.411774,308.211517 149.219879,316.777466 145.639023,326.018982 
M222.073959,304.955017 
	C225.850967,309.128571 230.408234,310.472321 235.812775,308.743195 
	C236.867233,300.996521 228.594574,295.397461 219.284637,295.950287 
	C211.419846,296.417267 206.429230,300.056305 205.601013,306.463776 
	C204.749542,313.051025 208.452560,317.686523 216.258911,319.861206 
	C218.651413,320.527679 221.158798,321.005920 223.338577,322.112244 
	C224.347565,322.624359 225.421753,324.643951 225.147263,325.602264 
	C224.856003,326.619110 222.693420,328.069977 221.885071,327.788605 
	C219.364746,326.911255 217.098404,325.304321 213.838181,323.478943 
	C211.844025,323.478943 208.594696,323.478943 205.337372,323.478943 
	C205.974045,330.468231 208.667633,334.604034 214.596619,335.770325 
	C218.872360,336.611389 223.539963,336.614105 227.842636,335.878540 
	C233.489410,334.913208 236.604233,330.726898 236.953278,325.466492 
	C237.299469,320.248962 234.998566,316.431305 229.680862,314.167053 
	C226.793106,312.937439 223.570450,312.481140 220.712997,311.198822 
	C219.120941,310.484344 217.968033,308.791260 216.617218,307.539215 
	C218.158340,306.652771 219.699463,305.766357 222.073959,304.955017 
M295.817841,301.127686 
	C291.356964,312.597656 286.896088,324.067596 281.978149,336.712769 
	C287.720734,334.675262 294.257202,339.418732 296.368927,331.239685 
	C296.482025,330.801575 298.150055,330.605743 299.103394,330.574219 
	C301.765533,330.486298 304.456573,330.334839 307.086823,330.637512 
	C308.300415,330.777161 310.178650,331.721161 310.408875,332.638458 
	C311.220276,335.871338 313.268677,336.217133 316.003479,336.045258 
	C318.483826,335.889374 320.981720,336.012329 323.990356,336.012329 
	C318.814178,322.681396 313.787842,309.736298 308.769104,296.810852 
	C305.894379,296.810852 303.367981,297.054321 300.909943,296.748383 
	C297.926208,296.376984 296.655151,297.800385 295.817841,301.127686 
M409.099030,334.904114 
	C409.833588,332.545929 410.568115,330.187775 411.596619,326.885925 
	C405.346863,326.885925 400.264221,326.885925 394.882874,326.885925 
	C394.989655,324.458069 395.065643,322.730408 395.160126,320.581604 
	C400.039368,320.581604 404.447205,320.581604 408.707581,320.581604 
	C408.707581,317.376556 408.707581,314.630157 408.707581,311.437439 
	C404.008423,311.437439 399.603577,311.437439 395.219849,311.437439 
	C395.219849,309.394623 395.219849,307.820251 395.219849,305.839905 
	C400.415741,305.839905 405.338135,305.839905 410.374603,305.839905 
	C410.374603,302.680664 410.374603,299.939423 410.374603,297.137451 
	C401.366547,297.137451 392.644684,297.137451 383.883545,297.137451 
	C383.883545,310.230530 383.883545,322.997620 383.883545,335.574646 
	C392.290924,335.574646 400.437347,335.574646 409.099030,334.904114 
M199.172745,315.500183 
	C199.172745,309.406494 199.172745,303.312836 199.172745,297.158203 
	C195.171295,297.158203 191.649323,297.158203 188.139740,297.158203 
	C188.139740,310.201172 188.139740,322.911377 188.139740,335.690918 
	C191.913696,335.690918 195.454865,335.690918 199.172867,335.690918 
	C199.172867,329.088867 199.172867,322.794434 199.172745,315.500183 
M307.000946,352.161865 
	C304.533661,351.374481 302.066406,350.587097 299.245300,349.686798 
	C298.469849,354.430511 297.871277,358.092285 297.272705,361.754059 
	C297.690674,361.938232 298.108643,362.122375 298.526611,362.306549 
	C299.438873,360.886322 300.351135,359.466125 301.270630,358.034668 
	C302.667755,359.645630 303.857727,361.017731 305.115570,362.468048 
	C305.925354,358.692902 306.552216,355.770538 307.000946,352.161865 
M341.024933,359.294739 
	C342.381317,358.482300 343.737701,357.669891 345.821198,356.421936 
	C345.821198,359.209229 345.821198,360.556152 345.821198,361.903076 
	C346.385620,361.999878 346.950073,362.096680 347.514496,362.193451 
	C348.270294,358.380829 349.026123,354.568207 349.979797,349.757385 
	C346.183746,351.196838 346.979858,357.548157 342.200684,354.547028 
	C342.055145,353.099030 341.913940,351.694366 341.772736,350.289673 
	C341.187073,350.274811 340.601440,350.259949 340.015778,350.245087 
	C339.324280,354.093506 338.632812,357.941925 337.941315,361.790344 
	C338.337341,361.977203 338.733368,362.164062 339.129425,362.350922 
	C339.729828,361.621796 340.330231,360.892670 341.024933,359.294739 
M246.661484,356.559784 
	C246.458832,355.586334 246.374390,354.567627 246.023544,353.650879 
	C245.588882,352.515198 244.933365,351.464020 244.373276,350.376343 
	C243.255081,351.141479 241.724121,351.662170 241.098328,352.718903 
	C239.419205,355.554321 238.127426,358.619110 236.681808,361.592804 
	C240.482269,358.828857 243.713074,359.234467 247.503922,363.044495 
	C247.167999,360.208649 246.996964,358.764709 246.661484,356.559784 
M196.842148,355.269958 
	C196.499786,357.443176 196.157425,359.616394 195.749619,362.205048 
	C198.433014,362.002991 200.514847,362.250610 202.289917,361.626160 
	C205.696854,360.427643 207.342819,357.373627 206.243332,354.179626 
	C205.659195,352.482697 202.909897,351.077850 200.858978,350.444489 
	C197.720398,349.475189 196.943542,351.791107 196.842148,355.269958 
M225.087402,352.751831 
	C225.714996,352.265076 226.342590,351.778320 227.878250,350.587311 
	C224.261307,350.587311 221.861404,350.587311 219.114868,350.587311 
	C218.483719,354.259918 217.854355,357.922028 217.122467,362.180725 
	C220.185989,361.994110 222.729294,361.839172 225.272598,361.684235 
	C225.276810,361.261139 225.281021,360.838043 225.285233,360.414978 
	C223.642761,360.102905 222.000290,359.790802 220.357819,359.478729 
	C220.273529,359.191254 220.189255,358.903778 220.104980,358.616333 
	C222.023895,357.843933 223.942810,357.071533 227.156204,355.778107 
	C224.120865,355.195465 222.613632,354.906158 221.106384,354.616852 
	C221.066086,354.266083 221.025772,353.915314 220.985458,353.564514 
	C222.080856,353.300903 223.176270,353.037292 225.087402,352.751831 
M284.890778,360.046997 
	C283.562012,360.046997 282.233276,360.046997 280.904510,360.046997 
	C280.795380,359.576630 280.686218,359.106262 280.577087,358.635895 
	C282.085205,357.923523 283.593353,357.211121 285.365540,356.373993 
	C283.848541,355.589905 282.687775,354.989929 280.740234,353.983276 
	C283.398834,353.067322 285.194733,352.448578 286.990631,351.829865 
	C286.878784,351.413330 286.766968,350.996796 286.655121,350.580261 
	C284.205536,350.580261 281.755920,350.580261 279.157959,350.580261 
	C278.599701,354.465240 278.096130,357.969788 277.400818,362.808563 
	C280.840729,361.842682 283.224182,361.173462 284.890778,360.046997 
M149.496399,356.022583 
	C148.212692,354.222656 147.933670,349.758881 144.671951,352.349060 
	C142.458694,354.106628 142.029907,358.111298 141.034821,360.544373 
	C144.060715,360.544373 146.565323,360.544373 149.242523,360.544373 
	C149.330521,359.516144 149.449615,358.124756 149.496399,356.022583 
M164.046066,359.665131 
	C165.781509,358.344604 167.544495,357.058197 169.240860,355.689209 
	C170.092056,355.002319 171.618149,353.785004 171.464767,353.463745 
	C170.891968,352.264069 169.895676,350.710266 168.788528,350.453796 
	C167.170074,350.078918 163.832825,350.574585 163.800934,350.930023 
	C163.531021,353.938904 159.951614,356.901886 164.046066,359.665131 
M380.415497,351.493073 
	C380.890228,351.563202 381.364960,351.633362 381.839691,351.703491 
	C381.788574,351.949677 381.737457,352.195862 381.686340,352.442047 
	C379.923553,352.007538 378.160767,351.573029 375.817078,350.995361 
	C375.199097,354.617249 374.588989,358.193146 373.978851,361.769012 
	C375.646423,361.645874 376.521332,361.059784 376.827728,360.256744 
	C377.939178,357.343994 378.859985,354.358490 380.415497,351.493073 
M259.824341,355.312073 
	C259.473297,357.496643 259.122223,359.681244 258.807312,361.640808 
	C261.716370,361.640808 263.878876,361.640808 266.041382,361.640808 
	C266.059082,361.407166 266.076752,361.173553 266.094452,360.939911 
	C264.680542,360.437317 263.266663,359.934692 261.926361,359.458252 
	C262.310791,356.249847 262.653656,353.388519 262.996521,350.527161 
	C262.492920,350.394012 261.989288,350.260895 261.485687,350.127747 
	C260.968842,351.579865 260.452026,353.032013 259.824341,355.312073 
M121.909767,355.734406 
	C122.906433,354.386658 123.903099,353.038910 125.130547,351.379059 
	C121.585007,350.279144 120.021011,352.359955 119.296219,354.939209 
	C118.488510,357.813446 118.343430,360.827026 122.671600,361.950592 
	C122.320168,359.867310 122.033554,358.168274 121.909767,355.734406 
M360.668213,356.106567 
	C360.453461,358.055511 360.238708,360.004425 360.023956,361.953369 
	C360.691071,362.036530 361.358215,362.119690 362.025330,362.202850 
	C362.721649,358.339569 363.417969,354.476288 364.114319,350.613007 
	C363.473541,350.463440 362.832764,350.313843 362.191986,350.164276 
	C361.734589,351.869781 361.277222,353.575317 360.668213,356.106567 
M164.496994,361.416321 
	C164.496994,361.416321 164.525177,361.353363 164.496994,361.416321 
z"/>
<path fill="#F2F2F2" opacity="1.000000" stroke="none" 
	d="
M338.158783,188.938156 
	C343.763519,192.722397 349.368286,196.506638 354.688843,200.672607 
	C349.883606,205.296417 345.287506,209.463837 340.914856,213.853806 
	C340.182343,214.589218 340.418427,216.289383 339.906830,217.713226 
	C338.245026,218.456970 336.921722,219.156982 335.515686,219.585907 
	C322.789246,223.468338 310.048279,227.303329 296.884949,231.103516 
	C293.611908,231.719223 290.788239,232.775040 287.912933,232.941971 
	C284.813660,233.121918 281.077362,234.766479 279.189148,230.520203 
	C281.287750,229.542725 283.106140,228.783997 285.303711,228.028168 
	C288.961426,228.843933 292.035583,228.858170 294.140533,224.925919 
	C290.424500,225.886200 286.708466,226.846481 282.594849,227.869904 
	C281.137878,227.792130 280.078430,227.651199 278.928314,227.233002 
	C277.887665,227.205582 276.937744,227.455429 275.540466,227.809692 
	C258.399200,227.853683 241.705215,227.793274 225.002380,227.426300 
	C224.591354,226.565765 224.189194,226.011810 223.787033,225.457840 
	C223.517563,226.148956 223.248108,226.840073 222.610657,227.608765 
	C221.497574,227.728409 220.752457,227.770493 219.891235,227.460144 
	C217.064529,225.302200 214.595139,225.237381 211.846420,228.315460 
	C213.359436,228.606659 214.248688,228.777802 215.478577,228.976074 
	C218.227600,229.619888 220.636017,230.236572 222.963989,231.227768 
	C222.836609,231.853302 222.789658,232.104309 222.600967,232.319122 
	C222.459213,232.282913 222.237564,232.091858 221.914612,232.099640 
	C221.058426,232.681610 220.525223,233.255783 219.586060,233.847595 
	C214.185364,233.250931 209.190643,232.636642 203.867828,232.010788 
	C203.101990,231.997086 202.664261,231.994949 202.134796,231.732025 
	C201.254318,231.065506 200.465607,230.659790 199.248871,230.180435 
	C198.532898,230.076660 198.244934,230.046509 197.583435,229.932343 
	C188.228363,226.970718 179.046539,224.590103 170.322281,221.074097 
	C161.800278,217.639633 152.597534,215.078018 146.232758,207.638672 
	C144.569717,203.124969 146.020233,199.534653 149.791580,196.939377 
	C153.832870,194.158325 158.067551,191.658310 163.032013,189.020691 
	C167.878922,188.343826 171.911697,187.681931 176.157272,187.242096 
	C176.939026,187.648117 177.507980,187.832092 178.055634,188.461243 
	C179.088547,189.305756 180.123123,189.979065 181.200363,190.056091 
	C185.448380,190.359940 189.709793,190.476517 193.965805,190.892303 
	C193.980957,191.427994 193.993073,191.734055 193.709671,192.169235 
	C193.402802,193.732925 193.118607,195.228714 193.427353,196.590042 
	C194.141220,199.737610 195.142349,202.820023 196.044617,206.194519 
	C196.401627,206.814651 196.740997,207.169128 197.080368,207.523621 
	C197.049164,207.005585 197.017975,206.487549 197.071732,205.521027 
	C197.702621,200.742416 198.248550,196.412292 199.197632,192.073105 
	C201.071823,191.694199 202.542847,191.324356 204.473053,190.856949 
	C217.947495,191.127853 230.962753,191.496338 244.140137,192.112991 
	C245.538666,192.228088 246.775070,192.095032 248.428604,191.854980 
	C250.559265,191.818405 252.272812,191.888809 254.185150,192.201874 
	C255.268036,192.257889 256.152130,192.071259 257.420898,191.747253 
	C261.531647,191.566437 265.257690,191.522964 269.003906,191.682892 
	C269.194580,192.071579 269.365082,192.256866 269.535614,192.442139 
	C269.696075,192.100815 269.856567,191.759506 270.474548,191.316620 
	C279.949432,191.129547 288.966736,191.044037 298.272034,191.236542 
	C300.761047,191.698349 302.962128,191.882141 305.019073,192.435074 
	C305.566559,196.633728 306.258148,200.463242 306.730225,204.496323 
	C306.046387,205.449615 305.582001,206.199356 305.117645,206.949081 
	C306.397308,207.123108 307.161133,206.916153 307.442535,206.429993 
	C307.829834,205.760757 307.852325,204.880417 308.096771,203.713028 
	C308.989868,200.727493 310.052612,198.161102 310.525604,195.490280 
	C310.707520,194.463120 309.546570,193.198166 309.020874,191.693817 
	C309.058777,191.114182 309.073334,190.882278 309.499817,190.508514 
	C313.833282,190.282837 317.762451,190.304199 321.670013,190.024323 
	C322.429779,189.969910 323.105530,188.742722 324.257385,188.042816 
	C329.182739,188.332169 333.670776,188.635162 338.158783,188.938156 
M251.399261,214.685776 
	C249.322220,213.217484 247.131012,211.394241 246.929230,216.741669 
	C246.299789,217.259628 245.670349,217.777603 244.986176,217.631989 
	C244.663467,217.090347 244.340759,216.548691 243.578003,215.527893 
	C242.734863,215.396622 241.891739,215.265350 240.904739,214.439667 
	C239.854904,214.244644 238.276230,213.528091 237.856079,213.954086 
	C236.676193,215.150482 234.876343,217.630066 235.269516,218.161209 
	C237.151718,220.703888 239.678940,222.769104 242.457672,225.451401 
	C246.208649,225.642685 250.085632,226.083221 251.853119,221.128922 
	C252.694733,221.630081 253.549515,222.110504 254.375656,222.635956 
	C257.854004,224.848373 260.977020,223.037659 262.349884,220.430984 
	C263.901581,217.484756 260.905029,216.465729 258.332489,215.828873 
	C257.293671,215.571671 256.469482,214.246323 255.460556,214.123779 
	C254.361694,213.990295 253.161804,214.688599 251.998734,215.000336 
	C251.998734,215.000336 252.013870,215.018768 251.399261,214.685776 
M277.662231,201.030060 
	C278.771027,201.975662 279.879852,202.921265 280.988647,203.866867 
	C281.313171,203.262375 281.637726,202.657883 281.962250,202.053391 
	C280.438477,201.527512 278.914673,201.001617 277.662231,201.030060 
M180.221359,200.807510 
	C181.436356,199.973373 182.651352,199.139236 183.866348,198.305099 
	C183.482147,197.881119 183.097946,197.457123 182.713745,197.033127 
	C181.735168,198.158691 180.756577,199.284241 180.221359,200.807510 
M207.514114,226.424530 
	C207.514114,226.424530 207.568329,226.520752 207.514114,226.424530 
z"/>
<path fill="#EAEBEC" opacity="1.000000" stroke="none" 
	d="
M202.226532,231.992798 
	C202.664261,231.994949 203.101990,231.997086 204.000854,232.351166 
	C209.757034,233.818542 215.052078,234.933975 220.347107,236.049408 
	C220.228745,235.309586 220.110382,234.569763 219.992004,233.829956 
	C220.525223,233.255783 221.058426,232.681610 221.989929,232.115692 
	C222.388229,232.123962 222.742722,232.355331 222.742722,232.355331 
	C222.789658,232.104309 222.836609,231.853302 223.385193,231.176041 
	C237.252731,232.921417 250.581863,235.510269 264.223114,232.927826 
	C269.082336,232.007904 274.011597,231.457825 278.908875,230.738922 
	C281.077362,234.766479 284.813660,233.121918 287.912933,232.941971 
	C290.788239,232.775040 293.611908,231.719223 296.737976,231.493881 
	C297.896545,232.266312 298.864044,233.029846 299.641449,232.869873 
	C317.632080,229.168045 334.845398,223.184845 351.165375,214.753906 
	C353.273773,213.664719 354.884949,211.613052 356.726440,210.007202 
	C356.433533,209.673431 356.140625,209.339676 355.847717,209.005905 
	C350.634125,211.851868 345.420563,214.697830 340.206970,217.543793 
	C340.418427,216.289383 340.182343,214.589218 340.914856,213.853806 
	C345.287506,209.463837 349.883606,205.296417 354.754761,201.011627 
	C356.726654,206.234177 359.769379,211.521286 359.688721,216.760330 
	C359.491730,229.558777 357.849854,242.334961 356.511230,255.633194 
	C356.049469,256.428162 356.022461,256.724274 356.151886,257.034637 
	C356.151886,257.034637 355.939453,257.425018 355.664520,257.865479 
	C352.862152,264.357147 348.423859,268.331909 342.130585,270.049988 
	C335.445953,271.874939 328.698181,273.468628 321.977997,275.163300 
	C294.559387,278.316223 267.079437,281.126465 239.456619,279.931000 
	C214.607666,278.855499 189.670975,277.954559 165.332642,271.914154 
	C162.758896,271.275360 160.248520,270.381256 157.346405,269.809204 
	C156.984085,270.012817 157.049011,269.990570 157.030212,269.622681 
	C155.673996,268.822357 154.336578,268.389923 152.997253,267.982544 
	C152.995346,268.007599 153.043839,267.994415 153.123947,267.644257 
	C152.142105,266.336609 151.080139,265.379150 149.862549,264.256927 
	C149.162430,263.568756 148.617950,263.045288 148.051697,262.140289 
	C147.021637,260.155334 146.013351,258.551971 144.990143,256.970459 
	C144.975220,256.992310 145.022003,256.985931 145.022003,256.985931 
	C144.012527,243.698395 142.809082,230.420486 142.147705,217.115646 
	C142.005493,214.254929 143.821609,211.296844 144.901535,209.022614 
	C148.319748,212.129120 151.223419,215.520477 154.885376,216.902466 
	C169.871246,222.557922 185.083847,227.613892 200.240875,232.809128 
	C200.749710,232.983551 201.557892,232.284637 202.226532,231.992798 
M175.336914,230.880051 
	C170.227295,229.246994 165.117691,227.613937 159.440323,225.565201 
	C154.712677,223.350113 149.985031,221.135040 144.613647,218.618347 
	C146.279236,226.434845 147.991043,233.590912 149.278732,240.822479 
	C150.124985,245.574966 152.560150,249.118973 156.354065,251.729095 
	C164.024918,257.006500 172.815216,258.797028 181.783920,259.894196 
	C182.147369,259.516846 182.510818,259.139526 182.874268,258.762177 
	C177.867203,251.889297 172.860123,245.016418 168.131027,237.871048 
	C168.131027,237.871048 168.406693,237.596252 169.111588,237.714249 
	C183.920807,244.595825 196.776230,254.107040 207.925568,266.047516 
	C209.695145,267.942657 212.394592,269.515106 214.921127,270.073090 
	C238.925369,275.374634 263.113403,274.769928 287.318390,271.672211 
	C288.751038,271.488861 290.368286,270.352570 291.321533,269.186951 
	C301.602295,256.616241 314.341309,247.185287 328.598267,239.663055 
	C330.120514,238.859879 331.762726,238.284058 334.187653,237.242737 
	C328.688141,245.112122 323.829163,252.064941 318.970184,259.017761 
	C319.310913,259.385590 319.651672,259.753418 319.992432,260.121277 
	C323.383270,259.447540 326.797241,258.872253 330.160889,258.082642 
	C343.005646,255.067245 353.189819,249.623703 353.875519,234.202530 
	C354.100739,229.137238 356.075562,224.149734 357.381042,218.567810 
	C350.710358,221.635925 344.858032,224.327621 338.248199,227.011673 
	C334.161499,228.367020 330.074829,229.722382 325.211395,231.049240 
	C299.838715,238.200226 273.841217,240.521606 247.633179,240.368256 
	C223.436066,240.226654 199.510910,237.260727 175.336914,230.880051 
M262.480316,235.917328 
	C252.988312,235.917328 243.496307,235.917328 234.004303,235.917328 
	C234.016266,236.389648 234.028244,236.861984 234.040207,237.334305 
	C247.490280,237.334305 260.940338,237.334305 274.390411,237.334305 
	C274.388947,236.853302 274.387482,236.372284 274.386017,235.891281 
	C270.747406,235.891281 267.108826,235.891281 262.480316,235.917328 
z"/>
<path fill="#F3F4F4" opacity="1.000000" stroke="none" 
	d="
M137.118774,334.818970 
	C133.544922,335.625519 130.013733,335.948853 126.147614,336.302826 
	C126.147614,329.726440 126.147614,323.782959 126.147614,317.422729 
	C121.410583,319.723053 121.641068,326.549652 115.452766,326.975006 
	C108.587082,327.446960 108.450989,320.817657 104.025558,317.782440 
	C103.648819,321.580170 102.572113,325.318695 103.103745,328.812500 
	C103.825340,333.554657 101.973854,334.473816 98.010460,334.028534 
	C96.571449,333.866852 95.118088,333.832886 92.262291,333.650848 
	C92.262291,323.340271 92.311882,313.282043 92.228813,303.224854 
	C92.206955,300.578522 92.309097,297.694122 95.422424,297.555511 
	C98.087776,297.436859 101.779350,297.883392 103.332535,299.602142 
	C107.527817,304.244659 110.825111,309.698700 114.777748,315.250854 
	C117.741310,311.104431 120.847260,307.393066 123.231705,303.264923 
	C126.336075,297.890411 130.243774,295.094543 137.161423,297.419891 
	C137.161423,309.465179 137.161423,321.900452 137.118774,334.818970 
z"/>
<path fill="#F1F2F3" opacity="1.000000" stroke="none" 
	d="
M270.213959,336.017273 
	C267.652679,336.240662 266.268036,335.869293 266.401825,333.184601 
	C266.590302,329.403076 266.449524,325.605133 266.449524,321.546722 
	C262.372406,321.546722 258.804260,321.546722 254.741989,321.546722 
	C254.741989,326.170380 254.741989,330.759094 254.741989,335.677368 
	C250.723358,335.677368 247.175552,335.677368 243.331940,335.677368 
	C243.331940,323.007324 243.331940,310.269287 243.331940,297.165833 
	C246.746628,297.165833 250.288300,297.165833 254.350433,297.165833 
	C254.350433,301.437592 254.350433,305.833618 254.350433,310.544739 
	C258.573090,310.544739 262.290710,310.544739 266.324158,310.544739 
	C266.324158,306.084473 266.324158,301.796997 266.324158,297.156860 
	C270.193756,297.156860 273.759857,297.156860 277.643005,297.156860 
	C277.643005,309.910370 277.643005,322.747742 277.643005,336.017273 
	C275.243225,336.017273 272.958801,336.017273 270.213959,336.017273 
z"/>
<path fill="#F3F3F4" opacity="1.000000" stroke="none" 
	d="
M342.325439,296.969849 
	C345.927124,296.840820 349.073975,296.840820 352.684937,296.840820 
	C352.684937,301.489960 352.684937,305.906921 352.684937,310.563385 
	C357.260864,311.257355 359.812317,309.949585 361.371765,305.749298 
	C365.014679,295.937317 365.172119,295.995789 376.840637,297.204773 
	C374.396393,303.110199 371.887054,308.821655 369.714294,314.658417 
	C369.139496,316.202515 369.013885,318.412598 369.692047,319.835449 
	C372.234680,325.169983 375.195496,330.305176 378.008942,335.532501 
	C377.441711,335.791656 377.313873,335.880890 377.173615,335.909729 
	C368.330078,337.727661 362.303619,334.978668 359.803894,325.724152 
	C359.047882,322.925232 357.614899,319.870178 352.988373,321.565155 
	C352.988373,326.003510 352.988373,330.733795 352.988373,335.734375 
	C348.926361,335.734375 345.357513,335.734375 341.870667,335.734375 
	C341.870667,322.809021 341.870667,309.953949 342.325439,296.969849 
z"/>
<path fill="#F3F4F5" opacity="1.000000" stroke="none" 
	d="
M145.774658,325.656372 
	C149.219879,316.777466 152.411774,308.211517 155.959518,299.795593 
	C156.524673,298.454895 158.786163,296.859070 160.092529,296.997192 
	C163.076904,297.312714 167.236893,294.627991 168.960709,298.829620 
	C173.928848,310.939026 178.516663,323.204437 183.486191,336.007111 
	C179.613968,336.007111 176.336990,336.095856 173.071503,335.941498 
	C172.304703,335.905304 171.100906,335.192780 170.903763,334.545898 
	C168.705948,327.334503 162.838516,331.217865 158.676987,330.807098 
	C156.966019,330.638184 154.964767,333.410309 153.095566,334.844666 
	C153.318054,335.182831 153.540543,335.521027 153.763031,335.859192 
	C149.955429,335.859192 146.147827,335.859192 141.784393,335.859192 
	C143.136002,332.408783 144.387512,329.213867 145.774658,325.656372 
M165.934082,319.196198 
	C164.896088,316.482300 163.858109,313.768433 162.507065,310.236053 
	C161.002975,314.651917 159.811279,318.150574 158.576309,321.776337 
	C165.111053,322.340546 165.111053,322.340546 165.934082,319.196198 
z"/>
<path fill="#F3F3F4" opacity="1.000000" stroke="none" 
	d="
M221.657272,304.917480 
	C219.699463,305.766357 218.158340,306.652771 216.617218,307.539215 
	C217.968033,308.791260 219.120941,310.484344 220.712997,311.198822 
	C223.570450,312.481140 226.793106,312.937439 229.680862,314.167053 
	C234.998566,316.431305 237.299469,320.248962 236.953278,325.466492 
	C236.604233,330.726898 233.489410,334.913208 227.842636,335.878540 
	C223.539963,336.614105 218.872360,336.611389 214.596619,335.770325 
	C208.667633,334.604034 205.974045,330.468231 205.337372,323.478943 
	C208.594696,323.478943 211.844025,323.478943 213.838181,323.478943 
	C217.098404,325.304321 219.364746,326.911255 221.885071,327.788605 
	C222.693420,328.069977 224.856003,326.619110 225.147263,325.602264 
	C225.421753,324.643951 224.347565,322.624359 223.338577,322.112244 
	C221.158798,321.005920 218.651413,320.527679 216.258911,319.861206 
	C208.452560,317.686523 204.749542,313.051025 205.601013,306.463776 
	C206.429230,300.056305 211.419846,296.417267 219.284637,295.950287 
	C228.594574,295.397461 236.867233,300.996521 235.811935,308.746246 
	C230.408234,310.472321 225.850967,309.128571 221.657272,304.917480 
z"/>
<path fill="#F3F4F5" opacity="1.000000" stroke="none" 
	d="
M295.933746,300.747192 
	C296.655151,297.800385 297.926208,296.376984 300.909943,296.748383 
	C303.367981,297.054321 305.894379,296.810852 308.769104,296.810852 
	C313.787842,309.736298 318.814178,322.681396 323.990356,336.012329 
	C320.981720,336.012329 318.483826,335.889374 316.003479,336.045258 
	C313.268677,336.217133 311.220276,335.871338 310.408875,332.638458 
	C310.178650,331.721161 308.300415,330.777161 307.086823,330.637512 
	C304.456573,330.334839 301.765533,330.486298 299.103394,330.574219 
	C298.150055,330.605743 296.482025,330.801575 296.368927,331.239685 
	C294.257202,339.418732 287.720734,334.675262 281.978149,336.712769 
	C286.896088,324.067596 291.356964,312.597656 295.933746,300.747192 
M306.852875,321.742004 
	C305.798248,318.338867 304.743622,314.935730 303.688995,311.532593 
	C303.319611,311.570709 302.950226,311.608826 302.580811,311.646973 
	C301.389343,314.965576 300.197845,318.284149 298.838654,322.069824 
	C301.535858,322.069824 303.800385,322.069824 306.852875,321.742004 
z"/>
<path fill="#F5F5F6" opacity="1.000000" stroke="none" 
	d="
M408.841431,335.239380 
	C400.437347,335.574646 392.290924,335.574646 383.883545,335.574646 
	C383.883545,322.997620 383.883545,310.230530 383.883545,297.137451 
	C392.644684,297.137451 401.366547,297.137451 410.374603,297.137451 
	C410.374603,299.939423 410.374603,302.680664 410.374603,305.839905 
	C405.338135,305.839905 400.415741,305.839905 395.219849,305.839905 
	C395.219849,307.820251 395.219849,309.394623 395.219849,311.437439 
	C399.603577,311.437439 404.008423,311.437439 408.707581,311.437439 
	C408.707581,314.630157 408.707581,317.376556 408.707581,320.581604 
	C404.447205,320.581604 400.039368,320.581604 395.160126,320.581604 
	C395.065643,322.730408 394.989655,324.458069 394.882874,326.885925 
	C400.264221,326.885925 405.346863,326.885925 411.596619,326.885925 
	C410.568115,330.187775 409.833588,332.545929 408.841431,335.239380 
z"/>
<path fill="#E7E8E9" opacity="1.000000" stroke="none" 
	d="
M148.073456,262.521851 
	C148.617950,263.045288 149.162430,263.568756 149.319061,264.480286 
	C150.302094,265.910400 151.672958,266.952423 153.043839,267.994415 
	C153.043839,267.994415 152.995346,268.007599 152.654114,268.343750 
	C153.891586,269.116791 155.470291,269.553680 157.049011,269.990601 
	C157.049011,269.990570 156.984085,270.012817 156.975159,269.979980 
	C158.021851,270.770233 158.962906,272.034058 160.152100,272.343170 
	C166.724686,274.051575 173.356659,275.531952 179.970947,277.079102 
	C181.383469,277.409546 182.807022,277.692719 184.357162,278.025940 
	C183.823807,282.525818 181.420639,284.552734 177.380707,284.582184 
	C168.392380,284.647705 159.402786,284.650696 150.414627,284.572693 
	C146.473709,284.538513 144.144424,282.358429 143.973785,278.442657 
	C143.683990,271.792816 143.640823,265.131683 143.574615,258.474487 
	C143.571671,258.178741 144.365967,257.875061 144.905457,257.280518 
	C145.022003,256.985931 144.975220,256.992310 144.582031,257.227142 
	C145.483719,259.148590 146.778580,260.835236 148.073456,262.521851 
z"/>
<path fill="#E7E8E9" opacity="1.000000" stroke="none" 
	d="
M356.887177,258.964752 
	C357.123871,258.856537 357.360565,258.748322 357.597290,258.640106 
	C357.620972,265.741089 358.053314,272.881287 357.378296,279.915222 
	C357.211487,281.653442 353.516541,284.260468 351.324524,284.385681 
	C342.361603,284.897644 333.352600,284.614380 324.360596,284.600830 
	C320.437866,284.594879 318.225281,282.494324 317.320038,278.280365 
	C318.585663,277.885834 319.924957,277.468384 322.023621,277.011261 
	C330.407532,275.016266 338.102142,273.293945 345.634308,271.031006 
	C351.543549,269.255676 355.198914,264.912811 356.887177,258.964752 
z"/>
<path fill="#FAFAFB" opacity="1.000000" stroke="none" 
	d="
M199.172806,316.000092 
	C199.172867,322.794434 199.172867,329.088867 199.172867,335.690918 
	C195.454865,335.690918 191.913696,335.690918 188.139740,335.690918 
	C188.139740,322.911377 188.139740,310.201172 188.139740,297.158203 
	C191.649323,297.158203 195.171295,297.158203 199.172745,297.158203 
	C199.172745,303.312836 199.172745,309.406494 199.172806,316.000092 
z"/>
<path fill="#EAEBEC" opacity="1.000000" stroke="none" 
	d="
M338.223328,188.579041 
	C333.670776,188.635162 329.182739,188.332169 323.956970,187.895508 
	C319.568024,181.841232 315.916809,175.920639 312.637939,170.038727 
	C314.007416,170.051285 315.004639,170.025146 316.001831,169.998993 
	C318.565765,173.539810 321.104309,177.099380 323.702698,180.614731 
	C325.397858,182.908188 327.250977,183.240387 328.351257,180.258835 
	C329.681976,176.652786 332.212067,175.595108 335.725800,175.834427 
	C340.359985,176.150101 346.528534,175.995407 347.609283,180.852524 
	C348.942047,186.842087 341.970306,186.318695 338.223328,188.579041 
z"/>
<path fill="#E7E8E9" opacity="1.000000" stroke="none" 
	d="
M198.974686,156.979828 
	C205.195404,149.024155 214.481232,150.694656 222.600983,150.310181 
	C238.724548,149.546722 254.908585,150.060150 271.506134,150.479233 
	C271.956940,151.522705 271.969238,152.132889 271.523529,152.844620 
	C257.248260,152.977280 243.424164,152.752960 229.616135,153.124817 
	C219.582184,153.395020 209.414169,153.536819 199.828232,157.904633 
	C199.404785,157.499771 199.189743,157.239792 198.974686,156.979828 
z"/>
<path fill="#EAEBEC" opacity="1.000000" stroke="none" 
	d="
M175.944458,187.020050 
	C171.911697,187.681931 167.878922,188.343826 163.387970,188.990082 
	C160.037460,187.349289 157.145142,185.724121 154.279510,184.113953 
	C156.542343,178.225433 159.631409,176.092697 165.236618,175.793930 
	C169.567047,175.563110 172.719101,176.710358 173.606445,181.855606 
	C174.261398,183.938904 175.102936,185.479477 175.944458,187.020050 
z"/>
<path fill="#32363D" opacity="1.000000" stroke="none" 
	d="
M202.134796,231.732025 
	C201.557892,232.284637 200.749710,232.983551 200.240875,232.809128 
	C185.083847,227.613892 169.871246,222.557922 154.885376,216.902466 
	C151.223419,215.520477 148.319748,212.129120 145.074753,209.317108 
	C145.367950,208.702744 145.653854,208.432877 146.086258,207.900848 
	C152.597534,215.078018 161.800278,217.639633 170.322281,221.074097 
	C179.046539,224.590103 188.228363,226.970718 197.677628,230.216858 
	C198.655869,230.474945 199.166367,230.364502 199.676880,230.254059 
	C200.465607,230.659790 201.254318,231.065506 202.134796,231.732025 
z"/>
<path fill="#D4D7DB" opacity="1.000000" stroke="none" 
	d="
M271.981567,152.743057 
	C271.969238,152.132889 271.956940,151.522705 271.957214,150.607544 
	C279.895508,150.892578 287.978790,150.737549 295.684540,152.367416 
	C299.934814,153.266388 303.551300,157.161713 307.648010,160.275421 
	C307.480347,161.291504 307.118195,161.738419 306.408630,162.146851 
	C300.254303,157.045898 293.453979,154.516602 285.807251,153.997742 
	C281.191559,153.684540 276.589661,153.168152 271.981567,152.743057 
z"/>
<path fill="#DDDFE3" opacity="1.000000" stroke="none" 
	d="
M307.090027,352.505035 
	C306.552216,355.770538 305.925354,358.692902 305.115570,362.468048 
	C303.857727,361.017731 302.667755,359.645630 301.270630,358.034668 
	C300.351135,359.466125 299.438873,360.886322 298.526611,362.306549 
	C298.108643,362.122375 297.690674,361.938232 297.272705,361.754059 
	C297.871277,358.092285 298.469849,354.430511 299.245300,349.686798 
	C302.066406,350.587097 304.533661,351.374481 307.090027,352.505035 
z"/>
<path fill="#6D7178" opacity="1.000000" stroke="none" 
	d="
M198.655914,156.921814 
	C199.189743,157.239792 199.404785,157.499771 199.728882,158.227783 
	C196.253677,163.023453 192.717072,167.392303 189.040848,171.640305 
	C188.386795,172.396088 187.152786,172.649963 186.072220,172.831116 
	C185.602768,172.298431 185.247681,172.070221 184.892593,171.842026 
	C184.399902,171.000015 183.907196,170.158005 183.680130,169.769943 
	C187.109497,166.072433 190.226486,162.466843 193.638321,159.166046 
	C194.830856,158.012329 196.749878,157.609528 198.655914,156.921814 
z"/>
<path fill="#32363D" opacity="1.000000" stroke="none" 
	d="
M356.682678,258.825684 
	C355.198914,264.912811 351.543549,269.255676 345.634308,271.031006 
	C338.102142,273.293945 330.407532,275.016266 322.376404,276.916016 
	C321.972351,276.577606 321.974854,276.294769 321.977661,275.587585 
	C328.698181,273.468628 335.445953,271.874939 342.130585,270.049988 
	C348.423859,268.331909 352.862152,264.357147 355.654297,258.087463 
	C356.098572,258.146179 356.284973,258.418701 356.682678,258.825684 
z"/>
<path fill="#DDDFE3" opacity="1.000000" stroke="none" 
	d="
M340.977783,359.729126 
	C340.330231,360.892670 339.729828,361.621796 339.129425,362.350922 
	C338.733368,362.164062 338.337341,361.977203 337.941315,361.790344 
	C338.632812,357.941925 339.324280,354.093506 340.015778,350.245087 
	C340.601440,350.259949 341.187073,350.274811 341.772736,350.289673 
	C341.913940,351.694366 342.055145,353.099030 342.200684,354.547028 
	C346.979858,357.548157 346.183746,351.196838 349.979797,349.757385 
	C349.026123,354.568207 348.270294,358.380829 347.514496,362.193451 
	C346.950073,362.096680 346.385620,361.999878 345.821198,361.903076 
	C345.821198,360.556152 345.821198,359.209229 345.821198,356.421936 
	C343.737701,357.669891 342.381317,358.482300 340.977783,359.729126 
z"/>
<path fill="#DDDFE3" opacity="1.000000" stroke="none" 
	d="
M246.743698,356.940277 
	C246.996964,358.764709 247.167999,360.208649 247.503922,363.044495 
	C243.713074,359.234467 240.482269,358.828857 236.681808,361.592804 
	C238.127426,358.619110 239.419205,355.554321 241.098328,352.718903 
	C241.724121,351.662170 243.255081,351.141479 244.373260,350.376343 
	C244.933365,351.464020 245.588882,352.515198 246.023544,353.650879 
	C246.374390,354.567627 246.458832,355.586334 246.743698,356.940277 
z"/>
<path fill="#DDDFE3" opacity="1.000000" stroke="none" 
	d="
M196.895111,354.849457 
	C196.943542,351.791107 197.720398,349.475189 200.858978,350.444489 
	C202.909897,351.077850 205.659195,352.482697 206.243332,354.179626 
	C207.342819,357.373627 205.696854,360.427643 202.289917,361.626160 
	C200.514847,362.250610 198.433014,362.002991 195.749619,362.205048 
	C196.157425,359.616394 196.499786,357.443176 196.895111,354.849457 
M203.660400,353.786591 
	C199.427094,352.460785 198.595352,353.671326 199.544250,359.777466 
	C203.296890,358.648895 203.296890,358.648895 203.660400,353.786591 
z"/>
<path fill="#D4D7DB" opacity="1.000000" stroke="none" 
	d="
M224.679535,352.762756 
	C223.176270,353.037292 222.080856,353.300903 220.985458,353.564514 
	C221.025772,353.915314 221.066086,354.266083 221.106384,354.616852 
	C222.613632,354.906158 224.120865,355.195465 227.156204,355.778107 
	C223.942810,357.071533 222.023895,357.843933 220.104980,358.616333 
	C220.189255,358.903778 220.273529,359.191254 220.357819,359.478729 
	C222.000290,359.790802 223.642761,360.102905 225.285233,360.414978 
	C225.281021,360.838043 225.276810,361.261139 225.272598,361.684235 
	C222.729294,361.839172 220.185989,361.994110 217.122467,362.180725 
	C217.854355,357.922028 218.483719,354.259918 219.114868,350.587311 
	C221.861404,350.587311 224.261307,350.587311 227.878250,350.587311 
	C226.342590,351.778320 225.714996,352.265076 224.679535,352.762756 
z"/>
<path fill="#D4D7DB" opacity="1.000000" stroke="none" 
	d="
M184.592834,172.026031 
	C185.247681,172.070221 185.602768,172.298431 186.027252,173.212433 
	C183.423416,178.604156 180.750168,183.310120 178.076920,188.016068 
	C177.507980,187.832092 176.939026,187.648117 176.157272,187.242096 
	C175.102936,185.479477 174.261398,183.938904 173.658859,182.217590 
	C179.794525,182.382614 179.786774,176.284348 182.989578,173.686646 
	C183.492477,173.278778 183.861923,172.706360 184.592834,172.026031 
z"/>
<path fill="#B8BBBF" opacity="1.000000" stroke="none" 
	d="
M285.249207,360.275604 
	C283.224182,361.173462 280.840729,361.842682 277.400818,362.808563 
	C278.096130,357.969788 278.599701,354.465240 279.157959,350.580261 
	C281.755920,350.580261 284.205536,350.580261 286.655121,350.580261 
	C286.766968,350.996796 286.878784,351.413330 286.990631,351.829865 
	C285.194733,352.448578 283.398834,353.067322 280.740234,353.983276 
	C282.687775,354.989929 283.848541,355.589905 285.365540,356.373993 
	C283.593353,357.211121 282.085205,357.923523 280.577087,358.635895 
	C280.686218,359.106262 280.795380,359.576630 280.904510,360.046997 
	C282.233276,360.046997 283.562012,360.046997 285.249207,360.275604 
z"/>
<path fill="#B8BBBF" opacity="1.000000" stroke="none" 
	d="
M149.532547,356.377991 
	C149.449615,358.124756 149.330521,359.516144 149.242523,360.544373 
	C146.565323,360.544373 144.060715,360.544373 141.034821,360.544373 
	C142.029907,358.111298 142.458694,354.106628 144.671951,352.349060 
	C147.933670,349.758881 148.212692,354.222656 149.532547,356.377991 
z"/>
<path fill="#A3A5AA" opacity="1.000000" stroke="none" 
	d="
M163.691498,359.847290 
	C159.951614,356.901886 163.531021,353.938904 163.800934,350.930023 
	C163.832825,350.574585 167.170074,350.078918 168.788528,350.453796 
	C169.895676,350.710266 170.891968,352.264069 171.464767,353.463745 
	C171.618149,353.785004 170.092056,355.002319 169.240860,355.689209 
	C167.544495,357.058197 165.781509,358.344604 163.691498,359.847290 
z"/>
<path fill="#D4D7DB" opacity="1.000000" stroke="none" 
	d="
M380.134094,351.446747 
	C378.859985,354.358490 377.939178,357.343994 376.827728,360.256744 
	C376.521332,361.059784 375.646423,361.645874 373.978851,361.769012 
	C374.588989,358.193146 375.199097,354.617249 375.817078,350.995361 
	C378.160767,351.573029 379.923553,352.007538 381.686340,352.442047 
	C381.737457,352.195862 381.788574,351.949677 381.839691,351.703491 
	C381.364960,351.633362 380.890228,351.563202 380.134094,351.446747 
z"/>
<path fill="#D7DADE" opacity="1.000000" stroke="none" 
	d="
M259.879761,354.898102 
	C260.452026,353.032013 260.968842,351.579865 261.485687,350.127747 
	C261.989288,350.260895 262.492920,350.394012 262.996521,350.527161 
	C262.653656,353.388519 262.310791,356.249847 261.926361,359.458252 
	C263.266663,359.934692 264.680542,360.437317 266.094452,360.939911 
	C266.076752,361.173553 266.059082,361.407166 266.041382,361.640808 
	C263.878876,361.640808 261.716370,361.640808 258.807312,361.640808 
	C259.122223,359.681244 259.473297,357.496643 259.879761,354.898102 
z"/>
<path fill="#A3A5AA" opacity="1.000000" stroke="none" 
	d="
M306.756073,162.185318 
	C307.118195,161.738419 307.480347,161.291504 307.877899,160.535156 
	C310.642609,163.248062 313.371857,166.270447 316.051483,169.645905 
	C315.004639,170.025146 314.007416,170.051285 312.357361,169.841156 
	C310.055054,167.131683 308.405548,164.658508 306.756073,162.185318 
z"/>
<path fill="#D4D7DB" opacity="1.000000" stroke="none" 
	d="
M320.580811,357.992493 
	C320.061951,355.561493 317.048920,352.850067 321.277649,350.932281 
	C324.200104,349.606903 326.640625,349.785583 328.224396,354.342773 
	C326.211151,353.624451 324.972961,353.182678 323.734772,352.740906 
	C323.568573,353.484406 323.402344,354.227875 323.565857,355.450562 
	C323.934021,356.602905 323.972504,357.276031 323.550507,357.733765 
	C322.222717,357.650787 321.355347,357.783173 320.491150,357.958984 
	C320.494324,358.002441 320.580811,357.992493 320.580811,357.992493 
z"/>
<path fill="#D4D7DB" opacity="1.000000" stroke="none" 
	d="
M121.828354,356.101807 
	C122.033554,358.168274 122.320168,359.867310 122.671600,361.950592 
	C118.343430,360.827026 118.488510,357.813446 119.296219,354.939209 
	C120.021011,352.359955 121.585007,350.279144 125.130547,351.379059 
	C123.903099,353.038910 122.906433,354.386658 121.828354,356.101807 
z"/>
<path fill="#D4D7DB" opacity="1.000000" stroke="none" 
	d="
M360.744019,355.693726 
	C361.277222,353.575317 361.734589,351.869781 362.191986,350.164276 
	C362.832764,350.313843 363.473541,350.463440 364.114319,350.613007 
	C363.417969,354.476288 362.721649,358.339569 362.025330,362.202850 
	C361.358215,362.119690 360.691071,362.036530 360.023956,361.953369 
	C360.238708,360.004425 360.453461,358.055511 360.744019,355.693726 
z"/>
<path fill="#B8BBBF" opacity="1.000000" stroke="none" 
	d="
M320.162903,358.054291 
	C320.580811,357.992493 320.494324,358.002441 320.541992,358.334015 
	C321.096954,359.370483 321.604187,360.075409 322.111420,360.780304 
	C322.744598,359.836609 323.377808,358.892883 324.010986,357.949188 
	C323.972504,357.276031 323.934021,356.602905 323.924377,355.593323 
	C324.988373,356.456909 326.509705,357.532959 326.860229,358.907562 
	C327.044586,359.630463 325.299042,361.542389 324.216309,361.733124 
	C322.456757,362.043152 320.525909,361.380798 318.667358,361.128906 
	C319.026581,360.124634 319.385803,359.120361 320.162903,358.054291 
z"/>
<path fill="#32363D" opacity="1.000000" stroke="none" 
	d="
M356.426758,257.022614 
	C356.022461,256.724274 356.049469,256.428162 356.434204,256.033722 
	C357.057312,256.148529 357.479126,256.375885 357.900909,256.603210 
	C357.501129,256.739014 357.101379,256.874786 356.426758,257.022614 
z"/>
<path fill="#A3A5AA" opacity="1.000000" stroke="none" 
	d="
M164.511078,361.384827 
	C164.525177,361.353363 164.496994,361.416321 164.511078,361.384827 
z"/>
<path fill="#0D1520" opacity="1.000000" stroke="none" 
	d="
M306.408630,162.146851 
	C308.405548,164.658508 310.055054,167.131683 311.985077,169.802460 
	C315.916809,175.920639 319.568024,181.841232 323.519623,187.909149 
	C323.105530,188.742722 322.429779,189.969910 321.670013,190.024323 
	C317.762451,190.304199 313.833282,190.282837 309.126312,190.371613 
	C304.888641,190.570572 301.436371,190.764557 297.984070,190.958527 
	C288.966736,191.044037 279.949432,191.129547 270.210632,191.237549 
	C269.320679,191.333191 269.152222,191.406342 268.983734,191.479477 
	C265.257690,191.522964 261.531647,191.566437 257.185913,191.623047 
	C255.706284,191.743866 254.846313,191.851547 253.986343,191.959229 
	C252.272812,191.888809 250.559265,191.818405 248.113159,191.717010 
	C246.246384,191.745605 245.112213,191.805206 243.978027,191.864807 
	C230.962753,191.496338 217.947495,191.127853 204.101395,190.710602 
	C200.169128,190.662094 197.067688,190.662338 193.966248,190.662567 
	C189.709793,190.476517 185.448380,190.359940 181.200363,190.056091 
	C180.123123,189.979065 179.088547,189.305756 178.055634,188.461243 
	C180.750168,183.310120 183.423416,178.604156 186.141632,173.516907 
	C187.152786,172.649963 188.386795,172.396088 189.040848,171.640305 
	C192.717072,167.392303 196.253677,163.023453 199.937271,158.372681 
	C209.414169,153.536819 219.582184,153.395020 229.616135,153.124817 
	C243.424164,152.752960 257.248260,152.977280 271.523529,152.844620 
	C276.589661,153.168152 281.191559,153.684540 285.807251,153.997742 
	C293.453979,154.516602 300.254303,157.045898 306.408630,162.146851 
z"/>
<path fill="#1B222B" opacity="1.000000" stroke="none" 
	d="
M279.189148,230.520187 
	C274.011597,231.457825 269.082336,232.007904 264.223114,232.927826 
	C250.581863,235.510269 237.252731,232.921417 223.465622,230.801529 
	C220.636017,230.236572 218.227600,229.619888 215.597076,228.607895 
	C216.919098,228.079254 218.463211,227.945923 220.007339,227.812592 
	C220.752457,227.770493 221.497574,227.728409 222.936829,227.730804 
	C224.091049,227.761154 224.551147,227.746994 225.011246,227.732849 
	C241.705215,227.793274 258.399200,227.853683 275.920380,227.877808 
	C277.504730,227.731110 278.261871,227.620682 279.019012,227.510269 
	C280.078430,227.651199 281.137878,227.792130 282.911499,227.943985 
	C284.058624,227.978363 284.491577,228.001816 284.924500,228.025253 
	C283.106140,228.783997 281.287750,229.542725 279.189148,230.520187 
z"/>
<path fill="#32363D" opacity="1.000000" stroke="none" 
	d="
M339.906830,217.713226 
	C345.420563,214.697830 350.634125,211.851868 355.847717,209.005905 
	C356.140625,209.339676 356.433533,209.673431 356.726440,210.007202 
	C354.884949,211.613052 353.273773,213.664719 351.165375,214.753906 
	C334.845398,223.184845 317.632080,229.168045 299.641449,232.869873 
	C298.864044,233.029846 297.896545,232.266312 297.164612,231.542603 
	C310.048279,227.303329 322.789246,223.468338 335.515686,219.585907 
	C336.921722,219.156982 338.245026,218.456970 339.906830,217.713226 
z"/>
<path fill="#B8BBBF" opacity="1.000000" stroke="none" 
	d="
M241.048615,215.134079 
	C241.891739,215.265350 242.734863,215.396622 243.555969,215.946426 
	C243.511917,217.053253 243.489899,217.741531 243.467896,218.429825 
	C243.992218,218.385086 244.516571,218.340332 245.040909,218.295578 
	C245.670349,217.777603 246.299789,217.259628 247.258911,216.504517 
	C249.767929,218.347183 250.955444,216.911728 252.013870,215.018768 
	C252.013870,215.018768 251.998734,215.000336 252.238464,215.216431 
	C252.048737,217.300964 251.619278,219.169403 251.189819,221.037857 
	C250.085632,226.083221 246.208649,225.642685 242.162659,224.870956 
	C241.594635,221.238373 241.321625,218.186218 241.048615,215.134079 
M244.383087,221.459885 
	C244.383087,221.459885 244.547165,221.563614 244.547165,221.563614 
	C244.547165,221.563614 244.528168,221.341736 244.383087,221.459885 
z"/>
<path fill="#EAEBEC" opacity="1.000000" stroke="none" 
	d="
M251.521469,221.083389 
	C251.619278,219.169403 252.048737,217.300964 252.242065,215.228394 
	C253.161804,214.688599 254.361694,213.990295 255.460556,214.123779 
	C256.469482,214.246323 257.293671,215.571671 258.332489,215.828873 
	C260.905029,216.465729 263.901581,217.484756 262.349884,220.430984 
	C260.977020,223.037659 257.854004,224.848373 254.375656,222.635956 
	C253.549515,222.110504 252.694733,221.630081 251.521469,221.083389 
z"/>
<path fill="#EAEBEC" opacity="1.000000" stroke="none" 
	d="
M240.976685,214.786865 
	C241.321625,218.186218 241.594635,221.238373 241.922287,224.647278 
	C239.678940,222.769104 237.151718,220.703888 235.269516,218.161209 
	C234.876343,217.630066 236.676193,215.150482 237.856079,213.954086 
	C238.276230,213.528091 239.854904,214.244644 240.976685,214.786865 
z"/>
<path fill="#32363D" opacity="1.000000" stroke="none" 
	d="
M196.026978,205.928864 
	C195.142349,202.820023 194.141220,199.737610 193.427353,196.590042 
	C193.118607,195.228714 193.402802,193.732925 194.098419,192.280930 
	C196.117615,192.203156 197.456055,192.142670 198.794479,192.082184 
	C198.248550,196.412292 197.702621,200.742416 196.831085,205.527115 
	C196.505493,205.981705 196.026978,205.928864 196.026978,205.928864 
z"/>
<path fill="#5E6165" opacity="1.000000" stroke="none" 
	d="
M219.586044,233.847580 
	C220.110382,234.569763 220.228745,235.309586 220.347107,236.049408 
	C215.052078,234.933975 209.757034,233.818542 204.328964,232.362732 
	C209.190643,232.636642 214.185364,233.250931 219.586044,233.847580 
z"/>
<path fill="#32363D" opacity="1.000000" stroke="none" 
	d="
M308.997498,192.041550 
	C309.546570,193.198166 310.707520,194.463120 310.525604,195.490280 
	C310.052612,198.161102 308.989868,200.727493 307.829529,203.780029 
	C307.314301,204.247269 307.131989,204.270004 306.949707,204.292755 
	C306.258148,200.463242 305.566559,196.633728 305.394836,192.537247 
	C306.942291,192.194031 307.969910,192.117798 308.997498,192.041550 
z"/>
<path fill="#EAEBEC" opacity="1.000000" stroke="none" 
	d="
M285.303711,228.028168 
	C284.491577,228.001816 284.058624,227.978363 283.309082,227.880829 
	C286.708466,226.846481 290.424500,225.886200 294.140533,224.925919 
	C292.035583,228.858170 288.961426,228.843933 285.303711,228.028168 
z"/>
<path fill="#EAEBEC" opacity="1.000000" stroke="none" 
	d="
M309.020874,191.693817 
	C307.969910,192.117798 306.942291,192.194031 305.538940,192.168091 
	C302.962128,191.882141 300.761047,191.698349 298.272034,191.236542 
	C301.436371,190.764557 304.888641,190.570572 308.714417,190.513489 
	C309.073334,190.882278 309.058777,191.114182 309.020874,191.693817 
z"/>
<path fill="#EAEBEC" opacity="1.000000" stroke="none" 
	d="
M199.197632,192.073105 
	C197.456055,192.142670 196.117615,192.203156 194.390442,192.151947 
	C193.993073,191.734055 193.980957,191.427994 193.965805,190.892303 
	C197.067688,190.662338 200.169128,190.662094 203.642227,190.808197 
	C202.542847,191.324356 201.071823,191.694199 199.197632,192.073105 
z"/>
<path fill="#EAEBEC" opacity="1.000000" stroke="none" 
	d="
M219.891235,227.460144 
	C218.463211,227.945923 216.919098,228.079254 215.256454,228.580765 
	C214.248688,228.777802 213.359436,228.606659 211.846420,228.315460 
	C214.595139,225.237381 217.064529,225.302200 219.891235,227.460144 
z"/>
<path fill="#EAEBEC" opacity="1.000000" stroke="none" 
	d="
M251.706573,214.852264 
	C250.955444,216.911728 249.767929,218.347183 247.312439,216.178223 
	C247.131012,211.394241 249.322220,213.217484 251.706573,214.852264 
z"/>
<path fill="#EAEBEC" opacity="1.000000" stroke="none" 
	d="
M277.526550,200.752899 
	C278.914673,201.001617 280.438477,201.527512 281.962250,202.053391 
	C281.637726,202.657883 281.313171,203.262375 280.988647,203.866867 
	C279.879852,202.921265 278.771027,201.975662 277.526550,200.752899 
z"/>
<path fill="#EAEBEC" opacity="1.000000" stroke="none" 
	d="
M179.999664,200.608658 
	C180.756577,199.284241 181.735168,198.158691 182.713745,197.033127 
	C183.097946,197.457123 183.482147,197.881119 183.866348,198.305099 
	C182.651352,199.139236 181.436356,199.973373 179.999664,200.608658 
z"/>
<path fill="#EAEBEC" opacity="1.000000" stroke="none" 
	d="
M306.730225,204.496323 
	C307.131989,204.270004 307.314301,204.247269 307.763855,204.157532 
	C307.852325,204.880417 307.829834,205.760757 307.442535,206.429993 
	C307.161133,206.916153 306.397308,207.123108 305.117645,206.949081 
	C305.582001,206.199356 306.046387,205.449615 306.730225,204.496323 
z"/>
<path fill="#EAEBEC" opacity="1.000000" stroke="none" 
	d="
M244.140137,192.112976 
	C245.112213,191.805206 246.246384,191.745605 247.696014,191.823975 
	C246.775070,192.095032 245.538666,192.228088 244.140137,192.112976 
z"/>
<path fill="#EAEBEC" opacity="1.000000" stroke="none" 
	d="
M225.002380,227.426300 
	C224.551147,227.746994 224.091049,227.761154 223.304794,227.653244 
	C223.248108,226.840073 223.517563,226.148956 223.787033,225.457840 
	C224.189194,226.011810 224.591354,226.565765 225.002380,227.426300 
z"/>
<path fill="#EAEBEC" opacity="1.000000" stroke="none" 
	d="
M278.928314,227.233002 
	C278.261871,227.620682 277.504730,227.731110 276.367676,227.773407 
	C276.937744,227.455429 277.887665,227.205582 278.928314,227.233002 
z"/>
<path fill="#EAEBEC" opacity="1.000000" stroke="none" 
	d="
M254.185150,192.201874 
	C254.846313,191.851547 255.706284,191.743866 256.801239,191.760391 
	C256.152130,192.071259 255.268036,192.257889 254.185150,192.201874 
z"/>
<path fill="#EAEBEC" opacity="1.000000" stroke="none" 
	d="
M245.013550,217.963776 
	C244.516571,218.340332 243.992218,218.385086 243.467896,218.429825 
	C243.489899,217.741531 243.511917,217.053253 243.776001,216.186005 
	C244.340759,216.548691 244.663467,217.090347 245.013550,217.963776 
z"/>
<path fill="#EAEBEC" opacity="1.000000" stroke="none" 
	d="
M196.044617,206.194519 
	C196.026978,205.928864 196.505493,205.981705 196.746124,205.975616 
	C197.017975,206.487549 197.049164,207.005585 197.080368,207.523621 
	C196.740997,207.169128 196.401627,206.814651 196.044617,206.194519 
z"/>
<path fill="#EAEBEC" opacity="1.000000" stroke="none" 
	d="
M269.003906,191.682892 
	C269.152222,191.406342 269.320679,191.333191 269.753113,191.339111 
	C269.856567,191.759506 269.696075,192.100815 269.535614,192.442139 
	C269.365082,192.256866 269.194580,192.071579 269.003906,191.682892 
z"/>
<path fill="#5E6165" opacity="1.000000" stroke="none" 
	d="
M222.600967,232.319122 
	C222.742722,232.355331 222.388229,232.123962 222.312897,232.107910 
	C222.237564,232.091858 222.459213,232.282913 222.600967,232.319122 
z"/>
<path fill="#EAEBEC" opacity="1.000000" stroke="none" 
	d="
M199.248871,230.180420 
	C199.166367,230.364502 198.655869,230.474945 198.051178,230.300873 
	C198.244934,230.046509 198.532898,230.076660 199.248871,230.180420 
z"/>
<path fill="#EAEBEC" opacity="1.000000" stroke="none" 
	d="
M207.541229,226.472641 
	C207.568329,226.520752 207.514114,226.424530 207.541229,226.472641 
z"/>
<path fill="#141C26" opacity="1.000000" stroke="none" 
	d="
M339.005737,227.019333 
	C344.858032,224.327621 350.710358,221.635925 357.381042,218.567810 
	C356.075562,224.149734 354.100739,229.137238 353.875519,234.202530 
	C353.189819,249.623703 343.005646,255.067245 330.160889,258.082642 
	C326.797241,258.872253 323.383270,259.447540 319.992432,260.121277 
	C319.651672,259.753418 319.310913,259.385590 318.970184,259.017761 
	C323.829163,252.064941 328.688141,245.112122 334.187653,237.242737 
	C331.762726,238.284058 330.120514,238.859879 328.598267,239.663055 
	C314.341309,247.185287 301.602295,256.616241 291.321533,269.186951 
	C290.368286,270.352570 288.751038,271.488861 287.318390,271.672211 
	C263.113403,274.769928 238.925369,275.374634 214.921127,270.073090 
	C212.394592,269.515106 209.695145,267.942657 207.925568,266.047516 
	C196.776230,254.107040 183.920807,244.595825 168.550629,237.451843 
	C167.712067,237.230484 167.434464,237.271545 167.156860,237.312622 
	C167.388931,237.589584 167.620987,237.866562 167.853058,238.143524 
	C172.860123,245.016418 177.867203,251.889297 182.874268,258.762177 
	C182.510818,259.139526 182.147369,259.516846 181.783920,259.894196 
	C172.815216,258.797028 164.024918,257.006500 156.354065,251.729095 
	C152.560150,249.118973 150.124985,245.574966 149.278732,240.822479 
	C147.991043,233.590912 146.279236,226.434845 144.613647,218.618347 
	C149.985031,221.135040 154.712677,223.350113 159.546661,226.027863 
	C159.072464,226.686874 158.491928,226.883224 157.551025,227.025818 
	C155.232651,226.418243 153.274628,225.864456 150.816391,225.169189 
	C154.327759,231.047745 174.567001,237.949249 181.861298,235.553207 
	C179.415344,234.462067 177.720032,233.705780 176.013733,232.657593 
	C176.010971,231.976334 176.019196,231.586990 176.027420,231.197632 
	C199.510910,237.260727 223.436066,240.226654 247.633179,240.368256 
	C273.841217,240.521606 299.838715,238.200226 325.602600,231.369873 
	C325.983002,232.098755 325.972198,232.507019 325.616058,233.058670 
	C321.867462,234.217712 318.464172,235.233368 315.060883,236.249023 
	C327.843506,235.711060 340.617889,235.179688 350.937531,226.751343 
	C350.784546,226.243912 350.631561,225.736481 350.478577,225.229034 
	C347.062805,226.249008 343.647003,227.268982 339.979248,228.125671 
	C339.486786,227.648026 339.246277,227.333679 339.005737,227.019333 
M220.282150,263.901672 
	C218.026947,263.496674 215.771744,263.091705 213.516541,262.686707 
	C213.440292,263.047638 213.364044,263.408600 213.287796,263.769531 
	C215.872253,264.453033 218.456711,265.136536 221.919006,266.080261 
	C223.066391,266.186005 224.213760,266.291748 225.361145,266.397522 
	C225.389557,265.982635 225.417984,265.567780 225.446411,265.152924 
	C223.977615,264.826263 222.508835,264.499603 220.282150,263.901672 
M282.845856,250.068512 
	C287.926758,249.329025 292.156006,247.016098 295.462463,242.900131 
	C290.921143,244.708328 286.379822,246.516525 280.949432,248.177353 
	C256.513000,252.374786 232.244934,252.335770 208.153122,245.162857 
	C210.340622,246.867538 212.551086,248.470963 215.001999,249.041580 
	C221.126495,250.467453 227.316513,251.861145 233.558472,252.484695 
	C249.812805,254.108459 266.049438,254.104538 282.845856,250.068512 
M240.685410,260.865784 
	C256.656860,261.394440 272.543243,261.181641 287.856354,255.485382 
	C262.976227,259.908264 238.152161,259.795929 213.274750,255.173492 
	C221.652176,259.637665 230.787338,259.764221 240.685410,260.865784 
M265.238678,268.940063 
	C267.857697,268.535706 270.503723,268.254974 273.087921,267.691132 
	C275.509369,267.162781 277.865448,266.334778 280.016174,265.706970 
	C262.193512,265.706970 244.401749,265.706970 226.609970,265.706970 
	C226.587280,266.164001 226.564590,266.621063 226.541885,267.078094 
	C238.966858,269.932526 251.582184,270.357147 265.238678,268.940063 
M282.684143,265.478363 
	C284.375549,264.919037 286.066986,264.359680 287.758392,263.800323 
	C285.221863,263.151123 283.032074,263.584900 280.876495,264.149231 
	C280.644836,264.209900 280.612000,265.029938 280.486938,265.497742 
	C280.940094,265.584290 281.393280,265.670837 282.684143,265.478363 
z"/>
<path fill="#5E6165" opacity="1.000000" stroke="none" 
	d="
M262.975281,235.904297 
	C267.108826,235.891281 270.747406,235.891281 274.386017,235.891281 
	C274.387482,236.372284 274.388947,236.853302 274.390411,237.334305 
	C260.940338,237.334305 247.490280,237.334305 234.040207,237.334305 
	C234.028244,236.861984 234.016266,236.389648 234.004303,235.917328 
	C243.496307,235.917328 252.988312,235.917328 262.975281,235.904297 
z"/>
<path fill="#32363D" opacity="1.000000" stroke="none" 
	d="
M175.682159,231.038849 
	C176.019196,231.586990 176.010971,231.976334 175.623535,232.660599 
	C169.466660,230.996857 163.689026,229.038223 157.911377,227.079575 
	C158.491928,226.883224 159.072464,226.686874 159.830551,226.235687 
	C165.117691,227.613937 170.227295,229.246994 175.682159,231.038849 
z"/>
<path fill="#32363D" opacity="1.000000" stroke="none" 
	d="
M338.626984,227.015503 
	C339.246277,227.333679 339.486786,227.648026 339.697449,228.345398 
	C335.098846,230.124023 330.530090,231.519653 325.961365,232.915283 
	C325.972198,232.507019 325.983002,232.098755 325.990967,231.384125 
	C330.074829,229.722382 334.161499,228.367020 338.626984,227.015503 
z"/>
<path fill="#0B131E" opacity="1.000000" stroke="none" 
	d="
M148.051697,262.140289 
	C146.778580,260.835236 145.483719,259.148590 144.596954,257.205261 
	C146.013351,258.551971 147.021637,260.155334 148.051697,262.140289 
z"/>
<path fill="#0B131E" opacity="1.000000" stroke="none" 
	d="
M153.123947,267.644257 
	C151.672958,266.952423 150.302094,265.910400 149.474701,264.645020 
	C151.080139,265.379150 152.142105,266.336609 153.123947,267.644257 
z"/>
<path fill="#0B131E" opacity="1.000000" stroke="none" 
	d="
M157.030212,269.622681 
	C155.470291,269.553680 153.891586,269.116791 152.656036,268.318695 
	C154.336578,268.389923 155.673996,268.822357 157.030212,269.622681 
z"/>
<path fill="#1B222B" opacity="1.000000" stroke="none" 
	d="
M166.040848,319.627991 
	C165.111053,322.340546 165.111053,322.340546 158.576309,321.776337 
	C159.811279,318.150574 161.002975,314.651917 162.507065,310.236053 
	C163.858109,313.768433 164.896088,316.482300 166.040848,319.627991 
z"/>
<path fill="#1B222B" opacity="1.000000" stroke="none" 
	d="
M306.458923,321.905914 
	C303.800385,322.069824 301.535858,322.069824 298.838654,322.069824 
	C300.197845,318.284149 301.389343,314.965576 302.580811,311.646973 
	C302.950226,311.608826 303.319611,311.570709 303.688995,311.532593 
	C304.743622,314.935730 305.798248,318.338867 306.458923,321.905914 
z"/>
<path fill="#1B222B" opacity="1.000000" stroke="none" 
	d="
M203.813538,354.170837 
	C203.296890,358.648895 203.296890,358.648895 199.544250,359.777466 
	C198.595352,353.671326 199.427094,352.460785 203.813538,354.170837 
z"/>
<path fill="#0B131E" opacity="1.000000" stroke="none" 
	d="
M323.550537,357.733765 
	C323.377808,358.892883 322.744598,359.836609 322.111420,360.780304 
	C321.604187,360.075409 321.096954,359.370483 320.538849,358.290588 
	C321.355347,357.783173 322.222717,357.650787 323.550537,357.733765 
z"/>
<path fill="#EAEBEC" opacity="1.000000" stroke="none" 
	d="
M244.455627,221.400818 
	C244.528168,221.341736 244.547165,221.563614 244.547165,221.563614 
	C244.547165,221.563614 244.383087,221.459885 244.455627,221.400818 
z"/>
<path fill="#D4D7DB" opacity="1.000000" stroke="none" 
	d="
M240.210327,260.842743 
	C230.787338,259.764221 221.652176,259.637665 213.274750,255.173492 
	C238.152161,259.795929 262.976227,259.908264 287.856354,255.485382 
	C272.543243,261.181641 256.656860,261.394440 240.210327,260.842743 
z"/>
<path fill="#D7DADE" opacity="1.000000" stroke="none" 
	d="
M282.066711,250.170731 
	C266.049438,254.104538 249.812805,254.108459 233.558472,252.484695 
	C227.316513,251.861145 221.126495,250.467453 215.001999,249.041580 
	C212.551086,248.470963 210.340622,246.867538 208.153122,245.162857 
	C232.244934,252.335770 256.513000,252.374786 281.450470,248.712616 
	C281.989899,249.555496 282.028290,249.863113 282.066711,250.170731 
z"/>
<path fill="#DDDFE3" opacity="1.000000" stroke="none" 
	d="
M264.787476,268.975098 
	C251.582184,270.357147 238.966858,269.932526 226.541885,267.078094 
	C226.564590,266.621063 226.587280,266.164001 226.609970,265.706970 
	C244.401749,265.706970 262.193512,265.706970 280.016174,265.706970 
	C277.865448,266.334778 275.509369,267.162781 273.087921,267.691132 
	C270.503723,268.254974 267.857697,268.535706 264.787476,268.975098 
z"/>
<path fill="#6D7178" opacity="1.000000" stroke="none" 
	d="
M325.616058,233.058685 
	C330.530090,231.519653 335.098846,230.124023 339.949402,228.508682 
	C343.647003,227.268982 347.062805,226.249008 350.478577,225.229034 
	C350.631561,225.736481 350.784546,226.243912 350.937531,226.751343 
	C340.617889,235.179688 327.843506,235.711060 315.060883,236.249023 
	C318.464172,235.233368 321.867462,234.217712 325.616058,233.058685 
z"/>
<path fill="#6D7178" opacity="1.000000" stroke="none" 
	d="
M157.551025,227.025818 
	C163.689026,229.038223 169.466660,230.996857 175.634521,232.952499 
	C177.720032,233.705780 179.415344,234.462067 181.861298,235.553207 
	C174.567001,237.949249 154.327759,231.047745 150.816391,225.169189 
	C153.274628,225.864456 155.232651,226.418243 157.551025,227.025818 
z"/>
<path fill="#D4D7DB" opacity="1.000000" stroke="none" 
	d="
M282.456299,250.119629 
	C282.028290,249.863113 281.989899,249.555496 281.895020,248.786316 
	C286.379822,246.516525 290.921143,244.708328 295.462463,242.900131 
	C292.156006,247.016098 287.926758,249.329025 282.456299,250.119629 
z"/>
<path fill="#B8BBBF" opacity="1.000000" stroke="none" 
	d="
M221.041153,265.820007 
	C218.456711,265.136536 215.872253,264.453033 213.287796,263.769531 
	C213.364044,263.408600 213.440292,263.047638 213.516541,262.686707 
	C215.771744,263.091705 218.026947,263.496674 220.657715,264.311829 
	C221.035904,265.088013 221.038528,265.454010 221.041153,265.820007 
z"/>
<path fill="#B8BBBF" opacity="1.000000" stroke="none" 
	d="
M282.265289,265.617859 
	C281.393280,265.670837 280.940094,265.584290 280.486938,265.497742 
	C280.612000,265.029938 280.644836,264.209900 280.876495,264.149231 
	C283.032074,263.584900 285.221863,263.151123 287.758392,263.800323 
	C286.066986,264.359680 284.375549,264.919037 282.265289,265.617859 
z"/>
<path fill="#DDDFE3" opacity="1.000000" stroke="none" 
	d="
M221.480072,265.950134 
	C221.038528,265.454010 221.035904,265.088013 221.036667,264.447449 
	C222.508835,264.499603 223.977615,264.826263 225.446411,265.152924 
	C225.417984,265.567780 225.389557,265.982635 225.361145,266.397522 
	C224.213760,266.291748 223.066391,266.186005 221.480072,265.950134 
z"/>
<path fill="#EAEBEC" opacity="1.000000" stroke="none" 
	d="
M167.992035,238.007294 
	C167.620987,237.866562 167.388931,237.589584 167.156860,237.312622 
	C167.434464,237.271545 167.712067,237.230484 168.198181,237.392838 
	C168.406693,237.596252 168.131027,237.871048 167.992035,238.007294 
z"/>
</svg>